<svg xmlns="http://www.w3.org/2000/svg" width="42" height="44" viewBox="0 0 42 44"><g fill="none" fill-rule="evenodd"><path d="M0 0h42v44H0z"/><path d="M15 10a1 1 0 1 1 0-2h22a1 1 0 0 1 0 2H15zm0 16a1 1 0 0 1 0-2h22a1 1 0 0 1 0 2H15zm0 8a1 1 0 0 1 0-2h22a1 1 0 0 1 0 2H15zm0-16a1 1 0 1 1 0-2h22a1 1 0 0 1 0 2H15zm-9-8a1 1 0 1 1 0-2h3a1 1 0 1 1 0 2H6zm0 16a1 1 0 0 1 0-2h3a1 1 0 0 1 0 2H6zm0 8a1 1 0 0 1 0-2h3a1 1 0 0 1 0 2H6zm0-16a1 1 0 1 1 0-2h3a1 1 0 1 1 0 2H6z" fill="#CC292A" fill-rule="nonzero"/></g></svg>