<svg xmlns="http://www.w3.org/2000/svg" xmlns:xlink="http://www.w3.org/1999/xlink" width="42" height="44" viewBox="0 0 42 44">
    <defs>
        <path id="a" d="M0 0h42v44H0z"/>
    </defs>
    <g fill="none" fill-rule="evenodd">
        <mask id="b" fill="#fff">
            <use xlink:href="#a"/>
        </mask>
        <g fill="#CC292A" fill-rule="nonzero" mask="url(#b)">
            <path d="M9.492 37.564H33.36a.496.496 0 0 0 .491-.492v-17.9a.496.496 0 0 0-.491-.492H9.492a.496.496 0 0 0-.492.492v17.9c0 .269.224.492.492.492zm0 2A2.496 2.496 0 0 1 7 37.072v-17.9a2.496 2.496 0 0 1 2.492-2.492H33.36a2.496 2.496 0 0 1 2.491 2.492v17.9a2.496 2.496 0 0 1-2.491 2.492H9.492z"/>
            <path d="M30.63 17.68a1 1 0 1 1-2 0v-4.475A7.18 7.18 0 0 0 21.426 6a7.18 7.18 0 0 0-7.205 7.205v4.475a1 1 0 0 1-2 0v-4.475A9.18 9.18 0 0 1 21.426 4a9.18 9.18 0 0 1 9.204 9.205v4.475zM23.663 26.63c0-1.268-.97-2.237-2.237-2.237-1.268 0-2.238.97-2.238 2.237 0 .671.298 1.268.746 1.641v2.089c0 .82.671 1.491 1.492 1.491.82 0 1.491-.671 1.491-1.491V28.27c.448-.373.746-.97.746-1.64z"/>
        </g>
    </g>
</svg>
