<svg xmlns="http://www.w3.org/2000/svg" xmlns:xlink="http://www.w3.org/1999/xlink" width="42" height="44" viewBox="0 0 42 44">
    <defs>
        <path id="a" d="M0 0h42v44H0z"/>
    </defs>
    <g fill="none" fill-rule="evenodd">
        <mask id="b" fill="#fff">
            <use xlink:href="#a"/>
        </mask>
        <g fill="#CC292A" fill-rule="nonzero" mask="url(#b)">
            <path d="M25.963 11.978h-6.422l10.774-10.9 10.775 10.9h-6.423v11.718c0 3.359-2.696 6.087-6.028 6.087H14.232V21h11.731v-9.022zm10.338-2l-5.986-6.055-5.985 6.055h3.633V23H16.232v4.783h12.407c2.223 0 4.028-1.827 4.028-4.087V9.978h3.634z"/>
            <path d="M7.528 32.022V20.304c0-3.359 2.696-6.087 6.028-6.087h14.407V23H16.232v9.022h6.422l-10.774 10.9-10.774-10.9h6.422zM25.963 21v-4.783H13.556c-2.222 0-4.028 1.827-4.028 4.087v13.718H5.894l5.986 6.055 5.985-6.055h-3.633V21h11.731z"/>
        </g>
    </g>
</svg>
