<svg xmlns="http://www.w3.org/2000/svg" xmlns:xlink="http://www.w3.org/1999/xlink" width="42" height="44" viewBox="0 0 42 44">
    <defs>
        <path id="a" d="M0 0h42v44H0z"/>
    </defs>
    <g fill="none" fill-rule="evenodd">
        <mask id="b" fill="#fff">
            <use xlink:href="#a"/>
        </mask>
        <g fill="#CC292A" fill-rule="nonzero" mask="url(#b)">
            <path d="M5.5 10.625V37.5h31V10.625h-31zm-1-2h33a1 1 0 0 1 1 1V38.5a1 1 0 0 1-1 1h-33a1 1 0 0 1-1-1V9.625a1 1 0 0 1 1-1z"/>
            <path d="M9.812 6.5L5.14 10.393a1 1 0 1 1-1.28-1.536l4.95-4.125a1 1 0 0 1 .64-.232h23.1a1 1 0 0 1 .64.232l4.95 4.125a1 1 0 1 1-1.28 1.536L32.188 6.5H9.812zM18.113 18.05c-1.213 0-2.238-1.025-2.238-2.238 0-1.212 1.025-2.237 2.238-2.237h5.774c1.213 0 2.238 1.025 2.238 2.238 0 1.212-1.025 2.237-2.238 2.237h-5.774zm0-2h5.774c.108 0 .238-.13.238-.238 0-.107-.13-.237-.238-.237h-5.774c-.108 0-.238.13-.238.238 0 .107.13.237.238.237z"/>
            <path d="M22 9.625a1 1 0 0 1-2 0V5.5a1 1 0 0 1 2 0v4.125z"/>
        </g>
    </g>
</svg>
