<svg xmlns="http://www.w3.org/2000/svg" width="56" height="50" viewBox="0 0 56 50">
    <g fill="none" fill-rule="evenodd">
        <path d="M.5 0h55v50H.5z"/>
        <path fill="#FFF" d="M27.577 5c-2.618 0-4.791 1.883-5.267 4.369-.622.219-1.223.479-1.792.784-2.09 1.125-3.75 3.028-3.75 5.6 0 1.428.26 2.733.869 3.81-.22-.042-.435-.09-.647-.115-.131-.01-.253-.031-.392-.028-.41.008-.84.108-1.201.365-.49.347-.767.885-.927 1.486l-.056.222a4.275 4.275 0 0 1-1.288-.392c-.174-.083-.376-.163-.56-.278a6.226 6.226 0 0 1-.558-.42 6.413 6.413 0 0 1-1.15-1.232c-.187-.264-.385-.543-.558-.869-.876-1.625-1.542-4.114-1.542-7.923v-.087-.083a1.015 1.015 0 0 0-.083-.25 1.044 1.044 0 0 0-.111-.17.468.468 0 0 0-.056-.056.945.945 0 0 0-.365-.25.874.874 0 0 0-.364-.031.64.64 0 0 0-.111.03.898.898 0 0 0-.702.897c0 6.437 1.882 9.774 3.92 11.424a6.909 6.909 0 0 0 3.334 1.455c-.06.968-.084 2.138-.084 3.67 0 .148.024.294.028.447H6.883a.924.924 0 1 0 .083 1.847h7.337a18.729 18.729 0 0 0 1.177 4.705c-.882.202-2.285.626-3.754 1.483-2.326 1.358-4.76 3.923-4.76 8.122a.909.909 0 0 0 .445.788c.28.16.625.16.902 0a.901.901 0 0 0 .445-.788c0-3.532 1.881-5.427 3.864-6.58a12.356 12.356 0 0 1 3.611-1.372c.39.74.823 1.452 1.32 2.128 2.253 3.073 5.621 5.348 9.91 5.824h.225c4.288-.476 7.66-2.75 9.913-5.824a17.18 17.18 0 0 0 1.317-2.128c.66.132 2.138.514 3.61 1.372 1.987 1.153 3.865 3.048 3.865 6.58a.903.903 0 0 0 .445.788.91.91 0 0 0 .903 0 .903.903 0 0 0 .444-.788c0-4.199-2.435-6.764-4.76-8.122a13.526 13.526 0 0 0-3.754-1.483c.6-1.503.983-3.097 1.177-4.705h7.337a.923.923 0 1 0 0-1.847H40.99c.004-.153.028-.299.028-.448 0-1.534-.048-2.687-.142-3.642a7.226 7.226 0 0 0 1.177-.278c.225-.073.455-.17.701-.28.244-.112.5-.24.754-.394.257-.152.5-.326.757-.53.257-.21.51-.438.757-.702a8.41 8.41 0 0 0 .726-.868c.232-.32.434-.674.645-1.062.208-.39.406-.827.587-1.288.726-1.845 1.205-4.286 1.205-7.504v-.087-.083a.936.936 0 0 0-.056-.195.404.404 0 0 0-.055-.055.725.725 0 0 0-.084-.17.41.41 0 0 0-.056-.056c-.03-.021-.058-.038-.086-.056a.899.899 0 0 0-.642-.225.64.64 0 0 0-.112.03.887.887 0 0 0-.448.251c-.02.028-.041.055-.058.083a.858.858 0 0 0-.111.143.601.601 0 0 0-.028.083.923.923 0 0 0-.056.167.58.58 0 0 0 0 .111v.059c0 6.097-1.701 8.774-3.25 10.025-1.065.864-2.052 1.065-2.573 1.117-.188-.538-.48-1.006-.927-1.316-.476-.33-1.055-.43-1.594-.42-.235.003-.479.052-.729.083.747-1.128 1.066-2.54 1.066-4.114 0-2.573-1.66-4.476-3.753-5.601a12.444 12.444 0 0 0-1.764-.757A5.377 5.377 0 0 0 27.577 5zm0 1.792c1.431 0 2.646.84 3.219 2.045a17.224 17.224 0 0 0-3.219-.309c-1.07 0-2.166.1-3.25.31a3.585 3.585 0 0 1 3.25-2.046zm0 3.643c2.118 0 4.452.454 6.16 1.371 1.709.917 2.743 2.146 2.743 3.948 0 2.027-.424 3.173-1.653 4.003-1.229.83-3.521 1.316-7.25 1.316-3.732 0-6.024-.485-7.253-1.316-1.23-.83-1.653-1.976-1.653-4.003 0-1.802 1.035-3.031 2.743-3.948 1.708-.917 4.041-1.371 6.163-1.371zM16.515 21.216c.055-.01.153-.014.308 0 .612.055 1.869.483 3.64.895.323.073.68.15 1.038.222 1.577.463 3.555.647 6.076.647 2.16 0 3.92-.15 5.375-.476.035-.01.077.007.111 0 .5-.08.966-.17 1.4-.253 1.735-.337 2.99-.66 3.642-.674.326-.007.434.066.503.115.07.048.167.124.282.475.222.701.333 2.25.333 4.76 0 3.462-1.076 6.987-3.08 9.716-1.816 2.475-4.393 4.298-7.67 4.927V28.299a.898.898 0 0 0-1.094-.895.895.895 0 0 0-.698.895v13.27c-3.28-.628-5.858-2.45-7.673-4.926-2.003-2.73-3.08-6.254-3.08-9.716 0-2.756.08-4.42.278-5.18.104-.382.208-.49.225-.503a.193.193 0 0 1 .084-.028z"/>
    </g>
</svg>
