<svg xmlns="http://www.w3.org/2000/svg" width="55" height="50" viewBox="0 0 55 50">
    <g fill="none" fill-rule="evenodd">
        <path d="M0 0h55v50H0z"/>
        <path fill="#FFF" d="M27.501 5C16.466 5 7.5 13.966 7.5 25.001 7.5 36.033 16.466 45 27.501 45 38.533 45 47.5 36.033 47.5 25.001 47.5 13.966 38.533 5 27.501 5zm0 1.738c10.092 0 18.26 8.172 18.26 18.263 0 .06-.003.122-.007.182a35.826 35.826 0 0 0-2.015-.127 52.103 52.103 0 0 0-4.262.053c.06-.428.104-.859.104-1.304.085-1.627-.461-3.15-1.35-4.498.215-.742.464-1.685.528-2.757.074-1.22-.033-2.577-1.014-3.49l-.253-.233h-.336c-2.335 0-3.936.978-4.91 1.752a13.055 13.055 0 0 0-4.745-.882c-1.762 0-3.359.34-4.831.882-.974-.774-2.572-1.752-4.91-1.752h-.34l-.253.229c-.954.89-1.04 2.204-.98 3.42.05 1.072.286 2.045.498 2.824-.903 1.372-1.45 2.935-1.45 4.485 0 .442.048.876.105 1.304-1.57-.07-2.968-.088-4.08-.047a37.01 37.01 0 0 0-2.015.128c-.003-.057-.007-.11-.007-.169 0-10.091 8.172-18.263 18.263-18.263zm-9.218 7.942c1.752.166 3.072.947 3.679 1.493l.408.36.505-.208a12.084 12.084 0 0 1 4.626-.89c1.715 0 3.249.327 4.519.883l.512.225.418-.37c.607-.546 1.93-1.327 3.686-1.493.233.385.435.934.388 1.766-.06 1-.327 2.082-.53 2.73l-.128.418.257.357c.862 1.169 1.3 2.44 1.226 3.787l-.003.02v.027c0 2.167-.782 3.905-2.447 5.19-1.66 1.286-4.289 2.112-7.988 2.112-3.694 0-6.325-.826-7.99-2.113-1.665-1.284-2.443-3.022-2.443-5.189 0-1.274.462-2.678 1.31-3.834l.253-.348-.12-.41c-.2-.688-.449-1.796-.499-2.8-.04-.833.158-1.362.36-1.713zm-4.8 11.21c.618.008 1.322.041 2.026.075.068.273.145.536.24.799-2.875.06-5.028.35-6.352.597a15.78 15.78 0 0 1-.129-1.319c.985-.09 2.363-.175 4.216-.151zm28.032.014c1.85-.023 3.235.06 4.212.152-.023.438-.067.87-.121 1.301-1.374-.253-3.585-.543-6.537-.59.091-.256.169-.516.24-.781a54.27 54.27 0 0 1 2.206-.082zm-25.392 1.722a7.858 7.858 0 0 0 2.236 2.726c1.338 1.034 3.08 1.759 5.207 2.147-.277.286-.53.6-.755.933l-.054-.047c.003-.007-.431.212-1.085.27-.653.057-1.459.04-2.17.04-1.068 0-1.537-.502-2.288-1.418a6.123 6.123 0 0 0-1.411-1.358c-.502-.351-.93-.6-1.463-.688l-.075-.014h-.07c-.404 0-.798.03-1.166.449-.182.212-.307.596-.226.923.081.33.287.536.476.657 1.19.792 1.398 2.359 2.142 3.754.698 1.388 2.197 2.045 3.73 2.045h2.262v4.175c-6.112-2.16-10.726-7.477-11.885-14 1.331-.25 3.558-.553 6.595-.594zm22.58.007c3.099.027 5.39.327 6.772.58-1.156 6.53-5.769 11.847-11.888 14.007v-4.522c0-1.382-.452-2.897-1.24-4.165a6.264 6.264 0 0 0-.833-1.078c2.013-.398 3.666-1.108 4.954-2.103a7.838 7.838 0 0 0 2.234-2.719zm-12.333 5.28h2.436c.703 0 1.458.563 2.065 1.536.603.97.977 2.275.977 3.249v5.041a18.352 18.352 0 0 1-8.697 0v-5.041c0-.95.408-2.254 1.055-3.228.64-.977 1.455-1.557 2.164-1.557zm-9.908 1.028c.755.782 1.665 1.493 3.04 1.493.674 0 1.52.023 2.325-.048h.007c-.104.304-.182.61-.25.917h-2.433c-1.071 0-1.83-.385-2.176-1.085l-.007-.01-.003-.01c-.149-.266-.333-.795-.503-1.257z"/>
    </g>
</svg>
