<svg xmlns="http://www.w3.org/2000/svg" width="42" height="44" viewBox="0 0 42 44">
    <g fill="none" fill-rule="nonzero">
        <path d="M0 0h42v44H0z"/>
        <g fill="#CC292A">
            <path d="M2.75 18.167c.59 1.923 4.887 3.684 10.207 3.684.77 0 1.517-.037 2.234-.105v1.797c-.724.063-1.471.095-2.234.095-4.317 0-8.143-1.047-10.276-2.74v2.405c0 2.089 4.543 4.133 10.276 4.133.77 0 1.517-.037 2.234-.105v1.797c-.724.063-1.471.095-2.234.095-4.317 0-8.143-1.047-10.276-2.74v1.847c0 2.088 4.543 4.133 10.276 4.133 1.272 0 2.485-.1 3.603-.28l.837 1.674a24.464 24.464 0 0 1-4.44.393C6.35 34.25.894 31.796.894 28.33V17.495h.028c.099-.386.449-.67.865-.67v-.164c2.133-1.693 5.959-2.74 10.277-2.74.762 0 2.403.032 3.127.095v1.797h-.893a23.487 23.487 0 0 0-2.234-.106c-4.155 0-7.685 1.074-9.314 2.46zM.028 25.65H0h.028zM17.872 13.92h1.788v16.197c0 2.089 4.543 4.133 10.276 4.133s10.277-2.044 10.277-4.133V13.92H42v16.197c0 3.466-5.455 5.92-12.064 5.92s-12.064-2.454-12.064-5.92V13.92z"/>
            <path d="M29.936 8C36.545 8 42 10.454 42 13.92c0 3.466-5.455 5.92-12.064 5.92s-12.064-2.454-12.064-5.92c0-3.466 5.455-5.92 12.064-5.92zm0 1.787c-5.733 0-10.276 2.045-10.276 4.133 0 2.089 4.543 4.133 10.276 4.133s10.277-2.044 10.277-4.133c0-2.088-4.544-4.133-10.277-4.133zM17.872 25.09a.894.894 0 0 1 1.788 0c0 2.09 4.543 4.133 10.276 4.133s10.277-2.044 10.277-4.133a.894.894 0 1 1 1.787 0c0 3.466-5.455 5.92-12.064 5.92s-12.064-2.454-12.064-5.92z"/>
            <path d="M17.872 19.505a.894.894 0 0 1 1.788 0c0 2.089 4.543 4.133 10.276 4.133s10.277-2.044 10.277-4.133a.894.894 0 1 1 1.787 0c0 3.466-5.455 5.92-12.064 5.92s-12.064-2.454-12.064-5.92z"/>
        </g>
    </g>
</svg>
