<svg xmlns="http://www.w3.org/2000/svg" width="42" height="44" viewBox="0 0 42 44">
    <g fill="none" fill-rule="evenodd">
        <path d="M0 0h42v44H0z"/>
        <g fill="#CC292A" fill-rule="nonzero">
            <path d="M13.865 35.442C6.211 35.442 0 29.302 0 21.721 0 14.141 6.21 8 13.865 8s13.866 6.14 13.866 13.721c0 7.58-6.211 13.721-13.866 13.721zm0-2.333c6.372 0 11.532-5.102 11.532-11.388s-5.16-11.388-11.532-11.388S2.333 15.435 2.333 21.721s5.16 11.388 11.532 11.388z"/>
            <path d="M27.41 35.442c-7.654 0-13.865-6.14-13.865-13.721C13.545 14.141 19.755 8 27.411 8c7.654 0 13.865 6.14 13.865 13.721 0 7.58-6.21 13.721-13.865 13.721zm0-2.333c6.372 0 11.533-5.102 11.533-11.388s-5.16-11.388-11.532-11.388-11.532 5.102-11.532 11.388 5.16 11.388 11.532 11.388z"/>
        </g>
    </g>
</svg>
